<?xml version="1.0" encoding="UTF-8"?><svg id="uuid-fc8e19f7-5a87-4e53-ac8e-3af1caecc035" xmlns="http://www.w3.org/2000/svg" xmlns:xlink="http://www.w3.org/1999/xlink" viewBox="0 0 200 40"><defs><linearGradient id="uuid-63e6b150-c392-4e9d-87ee-e1a3f6c63943" x1="0" y1="20" x2="28.65" y2="20" gradientUnits="userSpaceOnUse"><stop offset="0" stop-color="#0053bc"/><stop offset=".59" stop-color="#0053bc"/><stop offset=".67" stop-color="#0055c0"/><stop offset=".76" stop-color="#005dcc"/><stop offset=".84" stop-color="#006ae0"/><stop offset=".93" stop-color="#007dfc"/><stop offset=".93" stop-color="#007fff"/></linearGradient><linearGradient id="uuid-23297c63-cb99-4413-81c4-d94ac0cbb6a3" x1="10.16" y1="30.69" x2="37.98" y2="30.69" gradientUnits="userSpaceOnUse"><stop offset=".06" stop-color="#0053bc"/><stop offset=".15" stop-color="#0061d2"/><stop offset=".27" stop-color="#0071eb"/><stop offset=".38" stop-color="#007bf9"/><stop offset=".47" stop-color="#007fff"/></linearGradient><linearGradient id="uuid-4e3892b5-3e99-4cca-8468-99f07033c66b" x1="10.16" y1="30.56" x2="37.98" y2="30.56" gradientUnits="userSpaceOnUse"><stop offset=".06" stop-color="#0053bc"/><stop offset=".39" stop-color="#0075f0"/><stop offset=".71" stop-color="#0064f7"/><stop offset="1" stop-color="#005bfc"/></linearGradient><linearGradient id="uuid-c1c350d9-68a7-48eb-9b35-6a200ced5b09" x1="3.07" y1="40.8" x2="21.82" y2="3.03" gradientUnits="userSpaceOnUse"><stop offset=".29" stop-color="#005bce"/><stop offset=".64" stop-color="#007fff"/></linearGradient></defs><path d="M19.17.78L0,39.22h3.39c6.44,0,14.09-4.77,17.4-11.24l5.99-11.97L19.17.78Z" fill="url(#uuid-63e6b150-c392-4e9d-87ee-e1a3f6c63943)"/><path d="M22.24,22.73c-1.43-.42-2.81-.58-4.11-.58-4.54,0-7.93,2-7.98,2.03,2.72.66,5.69,2.37,8.55,5.97,9.02,11.36,19.27,8.82,19.27,8.82,0,0-3.83-12.96-15.74-16.24Z" fill="url(#uuid-23297c63-cb99-4413-81c4-d94ac0cbb6a3)"/><path d="M22.24,22.73c-6.48-1.89-12.07,1.44-12.08,1.45.04,0,.07.02.11.03,17.44-2.59,13.8,11.41,27.71,14.76,0,0-3.83-12.96-15.74-16.24Z" fill="url(#uuid-4e3892b5-3e99-4cca-8468-99f07033c66b)"/><path d="M22.99,8.43l-3.82-7.65L0,39.22h3.74s10.06-20.18,10.06-20.18c3.12-6.03,6.27-8.79,9.19-10.61Z" fill="url(#uuid-c1c350d9-68a7-48eb-9b35-6a200ced5b09)"/><polygon points="87.34 13.08 79.99 27.5 72.77 13.08 67.46 13.08 77.51 32.32 82.42 32.32 92.47 13.08 87.34 13.08" fill="#111"/><path d="M154.8,24.5c0,.98-.2,1.77-.59,2.34-.37.55-1.05.97-2.01,1.25-1.08.31-2.62.47-4.57.47-1.32,0-2.4-.08-3.22-.23-.72-.13-1.27-.36-1.64-.68-.35-.3-.59-.73-.74-1.32-.17-.68-.26-1.57-.26-2.66v-10.6h-4.59v10.6c0,2.2.3,3.91.92,5.22.65,1.38,1.75,2.37,3.28,2.95,1.41.54,3.34.81,5.73.81,1.8,0,3.29-.1,4.42-.31,1.2-.22,2.15-.55,2.89-1,.13-.08.25-.16.37-.24v1.22h4.58V13.08h-4.58v11.42Z" fill="#111"/><path d="M171.72,12.95c-1,.09-1.78.25-2.39.49h0c-.44.17-.83.38-1.17.64v-1h-4.58v19.24h4.58v-11.58c0-.88.05-1.6.14-2.15.07-.39.24-.67.54-.88.25-.18.8-.42,2-.58,1.07-.14,2.61-.21,4.58-.21h.82v-4.1h-.82c-1.51,0-2.76.04-3.7.13Z" fill="#111"/><path d="M112.11,14.82h0c-.77-.81-1.88-1.37-3.3-1.66-1.31-.27-3.03-.41-5.13-.42h-8.88v4.09h8.87c1.39,0,2.51.05,3.33.15.69.09,1.21.27,1.53.54.3.25.52.68.64,1.27.11.53.19,1.21.23,2.04-.73-.11-1.51-.2-2.35-.26-.95-.06-2.08-.1-3.37-.12-.38,0-.77,0-1.19,0-2.25,0-4.09.12-5.49.35-1.55.26-2.72.84-3.47,1.74-.76.91-1.13,2.23-1.13,4.05s.41,3.12,1.21,4.02c.79.88,1.98,1.46,3.54,1.71,1.41.22,3.2.34,5.35.34.42,0,.81,0,1.19-.01,1.09-.02,2.02-.07,2.78-.15,1.09-.11,1.95-.29,2.63-.54.11-.04.22-.09.33-.13v.5h4.58v-9.28c0-1.99-.12-3.64-.36-4.92-.26-1.38-.78-2.49-1.54-3.3ZM109.43,26.45c0,.78-.1,1.19-.19,1.41-.05.11-.15.28-.53.42-.3.11-.9.24-2.09.29-.77.03-1.77.05-2.97.06-.37,0-.76,0-1.17,0-1.35,0-2.45-.03-3.27-.08-.93-.06-1.41-.19-1.65-.29-.29-.12-.38-.27-.43-.39-.08-.2-.17-.59-.17-1.28s.09-1.13.17-1.34c.05-.13.14-.29.43-.41.24-.1.72-.24,1.65-.3.6-.04,1.34-.06,2.24-.06.32,0,.66,0,1.02,0l6.95.08v1.89Z" fill="#111"/><path d="M64.86,14.82c-.77-.8-1.88-1.36-3.3-1.66-1.31-.27-3.03-.41-5.13-.42h-8.88v4.09h8.87c1.39,0,2.51.05,3.33.15.69.09,1.21.27,1.53.54.3.25.52.68.64,1.27.11.53.19,1.21.23,2.04-.73-.11-1.51-.2-2.35-.26-.95-.06-2.08-.1-3.37-.12-.38,0-.77,0-1.19,0-2.25,0-4.09.12-5.49.35-1.55.26-2.72.84-3.47,1.74-.76.91-1.13,2.23-1.13,4.05s.41,3.12,1.21,4.02c.79.88,1.98,1.46,3.54,1.71,1.41.22,3.2.34,5.35.34.42,0,.81,0,1.19-.01,1.09-.02,2.02-.07,2.78-.15,1.09-.11,1.95-.29,2.63-.54.11-.04.22-.09.33-.13v.5h4.58v-9.28c0-1.99-.12-3.64-.36-4.92-.26-1.38-.78-2.49-1.54-3.3ZM62.19,26.45c0,.78-.1,1.19-.19,1.41-.05.11-.15.28-.53.42-.3.11-.9.24-2.09.29-.77.03-1.77.05-2.97.06-.37,0-.76,0-1.17,0-1.35,0-2.45-.03-3.27-.08-.93-.06-1.41-.19-1.65-.29-.29-.12-.38-.27-.43-.39-.08-.2-.17-.59-.17-1.28s.09-1.13.17-1.34c.05-.13.14-.29.43-.41.24-.1.72-.24,1.65-.3.6-.04,1.34-.06,2.24-.06.32,0,.66,0,1.02,0l6.95.08v1.89Z" fill="#111"/><path d="M195.21,24.98c0,.15.16,3.36-3.75,3.36s-7.72.67-8.64-2l12.76-4.87,3.68-1.4.74-.28c-.02-.54-.09-1.07-.22-1.58-.21-.83-.57-1.61-1.04-2.32-1.02-1.51-2.59-2.66-4.5-3.12-1.17-.28-1.32-.21-8.61-.21-4.14,0-7.5,3.37-7.5,7.5v4.91c0,4.14,3.37,7.5,7.5,7.5,7.29,0,7.44.07,8.61-.21,3.44-.83,5.78-3.87,5.78-7.3h-4.79ZM182.61,20.08c0-4.23,4.5-3.36,8.84-3.36,1.36,0,2.21.39,2.77.9l-11.65,4.44c.02-.65.04-1.31.04-1.98Z" fill="#111"/><path d="M125.27,28.05c-.5-.49-.37-.73-.37-10.62v-.3h8.01v-4.06h-8.03v-5.73h-4.58v5.72h-3.38v4.08h3.39v.29s.02,9.28.02,9.28c0,3.78,2.66,5.72,5.44,5.95h7.39v-4.27c-7.29,0-7.4.13-7.89-.34Z" fill="#111"/></svg>